<svg xmlns="http://www.w3.org/2000/svg" xmlns:xlink="http://www.w3.org/1999/xlink" width="33" height="46"><defs><path id="a" d="M514.5 512.041c-4.578 0-8.301-3.76-8.301-8.382 0-4.621 3.724-8.381 8.301-8.381s8.301 3.76 8.301 8.381c0 4.622-3.724 8.382-8.301 8.382zm0-25.041c-9.098 0-16.5 7.473-16.5 16.66 0 11.4 14.766 28.136 15.395 28.842.59.664 1.621.663 2.21 0 .63-.706 15.395-17.443 15.395-28.843 0-9.186-7.402-16.659-16.5-16.659z"/></defs><use fill="#fe7757" xlink:href="#a" transform="translate(-498 -487)"/></svg>